<?xml version="1.0" encoding="utf-8"?>
<svg viewBox="0 0 500 500" xmlns="http://www.w3.org/2000/svg">
  <path d="M 250.404 6 C 384.003 6 492.589 113.093 495 246.116 L 5.808 246.116 C 8.219 113.093 116.805 6 250.404 6 Z" style="stroke-width: 0px; stroke: rgb(0, 0, 0); fill: rgb(255, 0, 0);">
    <title>Top</title>
  </path>
  <path d="M 250.404 495 C 384.003 495 492.589 387.907 495 254.884 L 5.808 254.884 C 8.219 387.907 116.805 495 250.404 495 Z" style="stroke: rgb(74, 74, 74); stroke-width: 0px; fill: rgb(238, 238, 238);">
    <title>Bottom</title>
  </path>
  <ellipse style="fill: none; stroke: rgb(42, 42, 42); stroke-width: 14px;" cx="250" cy="250" rx="244.637" ry="244.637">
    <title>Pokeball</title>
  </ellipse>
  <path d="M 12.068 235.521 L 190.109 235.521 L 190.325 234.812 L 190.541 234.103 L 190.973 232.683 L 191.191 231.966 C 194.991 219.091 202.537 208.623 213.107 200.795 C 223.568 192.822 235.866 188.505 250 188.505 C 264.134 188.505 276.449 192.834 286.909 200.81 C 297.478 208.635 305.013 219.105 308.812 231.978 L 309.891 235.521 L 312.855 235.521 L 487.974 235.517 C 489.202 235.403 489.779 235.643 490.6 236.328 C 491.478 237.002 492.172 238.031 493.012 239.608 C 494.817 242.665 495.508 246.353 495.508 250.719 C 495.508 255.073 494.81 258.649 493.043 261.417 C 492.259 262.809 491.673 263.536 490.79 264.038 C 489.964 264.616 489.503 264.75 488.321 264.503 L 488.136 264.478 L 309.892 264.478 L 309.676 265.187 L 309.46 265.896 L 309.028 267.316 L 308.81 268.033 C 305.01 280.908 297.464 291.376 286.894 299.205 C 276.433 307.177 264.135 311.495 250 311.495 C 235.866 311.495 223.551 307.165 213.09 299.192 C 202.521 291.364 194.986 280.894 191.187 268.021 L 190.108 264.478 L 186.403 264.478 L 11.728 264.486 L 11.655 264.497 L 11.6 264.505 C 10.55 264.727 10.193 264.558 9.385 263.949 C 8.512 263.4 7.879 262.547 7.026 261.078 C 5.187 258.208 4.373 254.622 4.299 250.282 C 4.158 245.943 4.811 242.295 6.596 239.348 C 7.416 237.82 8.061 236.902 8.969 236.269 C 9.823 235.61 10.643 235.382 12.068 235.521 Z" style="stroke-width: 10px; stroke: rgb(42, 42, 42); fill: rgb(42, 42, 42);">
    <title>Separator</title>
  </path>
  <ellipse style="fill: rgb(238, 238, 238); stroke: rgb(42, 42, 42); stroke-width: 10px;" cx="250" cy="250" rx="44.363" ry="44.363">
    <title>Button</title>
  </ellipse>
</svg>